<svg width="923" height="417" viewBox="0 0 923 417" fill="none" xmlns="http://www.w3.org/2000/svg">
<path fill-rule="evenodd" clip-rule="evenodd" d="M207.437 168.699L254.746 168.594L175.791 231.069L206.087 332.352L127.357 269.542L48.6432 332.352C70.3518 266.518 124.945 194.882 207.437 168.699Z" fill="#004E78"/>
<path d="M175.481 230.677L175.215 230.888L175.312 231.212L205.149 330.964L127.669 269.151L127.357 268.902L127.045 269.151L49.652 330.906C71.6697 265.648 125.922 195.127 207.516 169.198L253.302 169.097L175.481 230.677Z" stroke="#00205A" stroke-opacity="0.61"/>
<path fill-rule="evenodd" clip-rule="evenodd" d="M127.373 67.3988L148.937 140.424C116.647 163.318 90.7418 193.035 73.9538 227.113L0 168.594L97.4473 168.805L127.373 67.3988Z" fill="#00806B"/>
<path d="M148.355 140.224C116.314 163.01 90.5636 192.515 73.7803 226.337L1.44043 169.096L97.4463 169.305H97.8213L97.9268 168.946L127.373 69.1644L148.355 140.224Z" stroke="#00205A" stroke-opacity="0.61"/>
<path d="M274.075 167.362H319.405C333.186 167.362 344.089 171.336 352.097 179.284C360.105 187.232 364.109 197.958 364.109 211.48C364.109 219.199 362.276 227.218 358.593 235.535C354.911 243.852 348.141 250.393 338.268 255.123L376.78 317.862H342.69L307.072 259.642H303.711V317.862H274.042V167.362H274.075ZM303.952 194.178V233.372H310.368C325.87 233.372 333.62 226.462 333.62 212.623C333.62 206.961 331.61 202.477 327.574 199.154C323.538 195.831 317.942 194.16 310.802 194.16H303.952V194.178Z" fill="#00806B"/>
<path d="M319.406 167.862C332.658 167.863 343.175 171.562 350.996 178.916L351.745 179.639C359.64 187.475 363.609 198.064 363.609 211.481C363.609 218.88 361.907 226.572 358.474 234.559L358.136 235.332C354.511 243.52 347.839 249.983 338.051 254.672L337.551 254.912L337.841 255.385L375.886 317.362H342.97L307.498 259.381L307.352 259.143H303.21V317.362H274.542V167.862H319.406ZM303.452 233.872H310.368C318.182 233.872 324.137 232.131 328.14 228.56C332.154 224.979 334.121 219.635 334.121 212.623C334.121 207.007 332.181 202.486 328.276 199.093L327.892 198.768C323.739 195.348 318.016 193.66 310.802 193.66H303.452V233.872Z" stroke="#00205A" stroke-opacity="0.61"/>
<path d="M398.087 167.362H427.755V317.862H398.087V167.362Z" fill="#00806B"/>
<path d="M427.255 167.862V317.362H398.587V167.862H427.255Z" stroke="#00205A" stroke-opacity="0.61"/>
<path d="M572.302 200.034L552.604 220.202C548.471 212.413 543.373 206.575 537.295 202.724C531.217 198.873 524.849 196.939 518.224 196.939C507.466 196.939 498.107 201.405 490.179 210.355C482.252 219.288 478.28 229.838 478.28 241.989C478.28 254.895 482.236 265.85 490.179 274.818C498.107 283.803 507.675 288.287 518.851 288.287C524.929 288.287 530.782 286.599 536.411 283.24C542.039 279.882 546.557 273.569 549.982 264.32H517.387V234.973H580.905V254.456C580.905 264.461 577.753 275.222 571.466 286.722C565.178 298.222 556.897 306.627 546.622 311.937C536.346 317.247 525.974 319.903 515.49 319.903C496.483 319.903 480.451 312.377 467.377 297.325C454.304 282.273 447.775 263.67 447.775 241.496C447.775 220.484 454.497 202.531 467.956 187.62C481.416 172.726 497.609 165.271 516.535 165.271C540.704 165.306 559.293 176.876 572.302 200.034Z" fill="#00806B"/>
<path d="M516.534 165.771C540.389 165.805 558.759 177.152 571.681 199.953L552.721 219.365C548.746 212.059 543.893 206.476 538.138 202.674L537.562 202.302C531.411 198.405 524.952 196.439 518.224 196.439C507.647 196.439 498.411 200.7 490.56 209.19L489.805 210.023C481.795 219.049 477.78 229.718 477.78 241.988C477.78 255.006 481.773 266.082 489.805 275.149V275.148C497.82 284.233 507.521 288.787 518.851 288.787C524.834 288.787 530.596 287.176 536.132 283.983L536.667 283.67C542.432 280.23 547.006 273.798 550.451 264.494L550.701 263.82H517.888V235.473H580.405V254.455C580.405 264.045 577.478 274.367 571.604 285.411L571.027 286.482C564.976 297.55 557.079 305.711 547.341 310.991L546.393 311.493C536.181 316.771 525.887 319.402 515.49 319.402C496.93 319.402 481.236 312.177 468.365 297.692L467.755 296.997C454.77 282.047 448.275 263.563 448.275 241.496C448.275 220.601 454.954 202.769 468.326 187.954L468.327 187.955C481.698 173.16 497.759 165.771 516.534 165.771Z" stroke="#00205A" stroke-opacity="0.61"/>
<path d="M602.694 167.362H632.362V225.354H681.102V167.362H710.77V317.862H681.102V258.025H632.362V317.862H602.694V167.362Z" fill="#00806B"/>
<path d="M631.862 167.862V225.854H681.602V167.862H710.27V317.362H681.602V257.525H631.862V317.362H603.194V167.862H631.862Z" stroke="#00205A" stroke-opacity="0.61"/>
<path d="M729.842 167.362H822.401V199.347H790.851V317.862H761.183V199.347H729.842V167.362Z" fill="#00806B"/>
<path d="M821.901 167.862V198.848H790.351V317.362H761.683V198.848H730.342V167.862H821.901Z" stroke="#00205A" stroke-opacity="0.61"/>
<path d="M919.35 181.008L900.905 203.129C891.193 196.869 884.198 193.721 879.936 193.721C876.656 193.721 873.826 195.075 871.446 197.783C869.066 200.491 867.876 203.727 867.876 207.472C867.876 214.875 874.019 221.31 886.32 226.726C895.341 230.929 902.144 234.727 906.759 238.138C911.374 241.532 915.233 246.262 918.337 252.293C921.44 258.324 923 264.865 923 271.899C923 284.805 918.224 296.042 908.688 305.607C899.153 315.155 887.88 319.938 874.887 319.938C860.624 319.938 846.553 312.605 832.644 297.941L852.133 273.059C860.865 282.924 869.05 287.847 876.656 287.847C880.226 287.847 883.635 286.107 886.931 282.643C890.212 279.179 891.852 275.539 891.852 271.723C891.852 263.881 884.262 256.953 869.098 250.957C860.431 247.493 854.288 244.257 850.654 241.25C847.02 238.244 843.965 233.848 841.488 228.063C839.012 222.295 837.774 216.387 837.774 210.356C837.774 196.992 841.762 186.125 849.721 177.808C857.681 169.473 868.101 165.324 880.966 165.324C896.226 165.306 909.01 170.528 919.35 181.008Z" fill="#00806B"/>
<path d="M880.965 165.823H880.966C895.94 165.806 908.487 170.872 918.672 181.037L900.802 202.47C896.092 199.452 892.018 197.164 888.581 195.621C885.065 194.043 882.174 193.221 879.937 193.221C876.497 193.221 873.535 194.649 871.071 197.453C868.607 200.257 867.376 203.611 867.376 207.472C867.376 215.199 873.789 221.756 886.119 227.184V227.183C894.56 231.116 901.033 234.685 905.578 237.902L906.461 238.54L906.462 238.541C910.72 241.672 914.338 245.968 917.307 251.416L917.892 252.522C920.958 258.48 922.499 264.942 922.499 271.899C922.499 284.267 918.072 295.081 909.206 304.361L908.334 305.254C898.888 314.712 887.741 319.438 874.887 319.438C860.911 319.438 847.062 312.306 833.304 297.907L852.159 273.836C860.773 283.439 868.95 288.348 876.656 288.348C880.289 288.348 883.717 286.627 886.979 283.313L887.293 282.988L887.294 282.987C890.64 279.454 892.352 275.696 892.352 271.723C892.352 267.621 890.361 263.804 886.498 260.279C882.883 256.979 877.603 253.909 870.687 251.059L869.282 250.491C860.897 247.14 854.927 244.021 851.315 241.143L850.973 240.865C847.639 238.107 844.781 234.136 842.414 228.925L841.948 227.865L841.502 226.793C839.349 221.427 838.274 215.944 838.274 210.356C838.274 197.513 841.983 187.036 849.358 178.931L850.082 178.154H850.083C857.692 170.187 867.579 166.084 879.778 165.835L880.965 165.823Z" stroke="#00205A" stroke-opacity="0.61"/>
<path d="M299.787 63.7413C299.787 81.202 295.092 95.2515 285.701 105.872C276.31 116.493 263.301 121.803 246.69 121.803H197.146V101.634H208.482V26.9208H197.146V6.73462H245.387C263.413 6.73462 276.985 11.9922 286.103 22.4897C295.236 33.0048 299.787 46.7554 299.787 63.7413ZM276.487 64.093C276.487 39.3174 265.97 26.9208 244.921 26.9208H230.191V101.634H244.921C255.067 101.634 262.866 98.6803 268.318 92.7898C273.753 86.8816 276.487 77.316 276.487 64.093Z" fill="#004E78"/>
<path d="M245.387 7.23462C263.034 7.23462 276.308 12.2979 285.3 22.3362L285.725 22.8176C294.763 33.2227 299.287 46.848 299.287 63.7415C299.287 80.8384 294.763 94.5961 285.758 105.046L285.326 105.541C276.047 116.036 263.185 121.303 246.69 121.303H197.646V102.134H208.983V26.4211H197.646V7.23462H245.387ZM229.691 102.134H244.921C254.848 102.134 262.616 99.3313 268.156 93.6848L268.685 93.1292L268.686 93.1282C274.246 87.0841 276.987 77.3658 276.987 64.093C276.987 51.6463 274.346 42.2162 268.978 35.8928C263.596 29.5539 255.546 26.4212 244.921 26.4211H229.691V102.134Z" stroke="#00205A" stroke-opacity="0.61"/>
<path d="M349.331 121.821H309.017V104.641H318.73V59.3278H308.213V41.9726H339.618V104.641H349.331V121.821ZM317.926 27.8001V4.07953H338.814V27.8001H317.926Z" fill="#004E78"/>
<path d="M339.118 42.4731V105.141H348.83V121.321H309.517V105.141H319.23V58.8276H308.713V42.4731H339.118ZM338.314 4.57953V27.3002H318.426V4.57953H338.314Z" stroke="#00205A" stroke-opacity="0.61"/>
<path d="M422.674 97.3791C422.674 106.224 419.458 112.818 413.042 117.126C406.625 121.434 398.28 123.579 388.036 123.579C382.746 123.579 377.439 122.964 372.085 121.715C366.73 120.467 361.649 118.497 356.792 115.789L359.703 93.4755L375.88 95.4273V105.345C377.825 106.048 379.868 106.487 382.038 106.681C384.193 106.857 385.817 106.945 386.895 106.945C390.883 106.945 394.34 106.241 397.251 104.817C400.161 103.393 401.624 101.283 401.624 98.4517C401.624 95.0228 399.405 92.7897 394.983 91.7171C390.561 90.662 385.431 89.5894 379.61 88.5344C373.789 87.4794 368.66 85.2814 364.237 81.9757C359.815 78.6699 357.596 73.0607 357.596 65.1655C357.596 55.3714 361.07 48.795 368.032 45.4189C374.995 42.0604 382.199 40.3724 389.645 40.3724C399.357 40.3724 408.475 42.7989 416.997 47.6345L418.782 67.9965L402.589 69.9483L401.287 58.8002C397.733 57.499 393.89 56.8484 389.789 56.8484C387.088 56.8484 384.788 57.4638 382.907 58.7123C381.009 59.9431 380.077 61.8774 380.077 64.4622C380.077 67.891 382.199 70.1593 386.477 71.2847C390.738 72.4101 395.707 73.5003 401.367 74.5553C407.027 75.6103 411.996 77.7731 416.258 81.0085C420.535 84.2616 422.674 89.7125 422.674 97.3791Z" fill="#004E78"/>
<path d="M389.645 40.8724C399.183 40.8724 408.139 43.2341 416.522 47.9417L418.241 67.5579L403.028 69.3909L401.783 58.7425L401.747 58.4368L401.458 58.3304L400.778 58.0901C397.356 56.9276 393.684 56.348 389.789 56.348C387.011 56.348 384.61 56.9817 382.63 58.2952V58.2962C380.568 59.6362 379.576 61.7434 379.576 64.4622C379.576 66.2894 380.146 67.8405 381.308 69.0794C382.459 70.3072 384.156 71.1899 386.349 71.7669V71.7679C390.091 72.756 394.372 73.7163 399.182 74.6487L401.276 75.0472C406.515 76.0238 411.145 77.9589 415.16 80.8216L415.955 81.4066C420.061 84.5294 422.174 89.799 422.174 97.3792C422.174 105.813 419.213 112.106 413.34 116.31L412.763 116.71C406.453 120.947 398.213 123.079 388.036 123.079C382.785 123.079 377.517 122.468 372.198 121.228C366.998 120.015 362.059 118.116 357.332 115.515L360.134 94.0306L375.38 95.8704V105.696L375.709 105.815C377.45 106.444 379.264 106.866 381.171 107.093L381.994 107.179H381.998C384.156 107.355 385.796 107.445 386.895 107.445C390.688 107.445 394.033 106.817 396.903 105.532L397.47 105.266C398.982 104.526 400.151 103.592 400.941 102.446C401.733 101.295 402.124 99.9581 402.124 98.4515C402.124 96.6179 401.526 95.0719 400.318 93.8489C399.197 92.7145 397.581 91.8892 395.52 91.3382L395.101 91.2308H395.099C391.221 90.3055 386.802 89.3676 381.853 88.4398L379.699 88.0423C374.13 87.0328 369.21 84.9661 364.948 81.8773L364.536 81.5755C360.289 78.3999 358.096 72.9741 358.096 65.1653C358.096 55.5025 361.508 49.1375 368.248 45.8685L368.249 45.8694C375.147 42.5422 382.278 40.8724 389.645 40.8724Z" stroke="#00205A" stroke-opacity="0.61"/>
<path d="M437.564 47.6345C443.932 44.8035 449.239 42.8869 453.516 41.8846C457.777 40.8823 462.875 40.3724 468.808 40.3724C476.688 40.3724 483.49 42.6231 489.214 47.107C494.939 51.5908 497.801 58.3782 497.801 67.469V102.162C497.801 106.294 499.474 108.351 502.819 108.351C503.783 108.351 504.812 108.176 505.89 107.824L506.051 119.869C501.838 122.348 497.464 123.579 492.945 123.579C483.345 123.579 477.99 118.321 476.913 107.824V107.648C474.855 111.657 471.928 115.315 468.085 118.62C464.258 121.926 459.369 123.579 453.436 123.579C448.145 123.579 443.08 121.873 438.223 118.444C433.367 115.016 430.939 109.125 430.939 100.738C430.939 90.9434 434.525 84.455 441.713 81.2723C448.885 78.0896 456.636 76.4895 464.949 76.4895C469.596 76.4895 473.584 76.7357 476.929 77.1929V74.5377C476.929 70.4055 476.414 66.3964 475.385 62.4928C474.356 58.5892 470.883 56.655 464.949 56.655C462.794 56.655 460.816 56.7956 459.048 57.0946C457.263 57.3935 455.51 58.0089 453.789 58.9585L451.04 70.2824L434.364 68.3306L437.564 47.6345ZM476.897 89.2378V88.1827C475.176 87.9542 473.423 87.708 471.639 87.4794C469.854 87.2508 468.101 87.1277 466.38 87.1277C462.714 87.1277 459.466 87.8662 456.668 89.3433C453.854 90.8203 452.455 93.7392 452.455 98.1C452.455 100.702 453.098 102.883 454.4 104.659C455.703 106.435 457.906 107.314 461.042 107.314C464.708 107.314 468.133 105.872 471.317 102.971C474.501 100.069 476.366 95.4976 476.897 89.2378Z" fill="#004E78"/>
<path d="M468.808 40.8724C476.342 40.8724 482.858 42.955 488.376 47.0941L488.906 47.5003C494.48 51.8661 497.301 58.4896 497.301 67.4691V102.161C497.301 104.282 497.729 105.964 498.668 107.121C499.623 108.299 501.039 108.851 502.819 108.851C503.646 108.851 504.508 108.727 505.398 108.489L505.545 119.58C501.481 121.92 497.279 123.079 492.945 123.079C488.238 123.079 484.639 121.792 482.084 119.282C479.524 116.767 477.946 112.96 477.413 107.789V107.648L476.468 107.419C474.569 111.119 471.915 114.521 468.461 117.624L467.758 118.242C464.037 121.455 459.271 123.079 453.435 123.079C448.422 123.079 443.605 121.516 438.961 118.348L438.512 118.036C433.838 114.736 431.439 109.034 431.439 100.738C431.439 95.8989 432.325 91.9179 434.068 88.7679C435.698 85.8215 438.092 83.5759 441.269 82.0296L441.916 81.7298C449.02 78.5771 456.701 76.9896 464.949 76.9896C469.579 76.9896 473.544 77.2345 476.861 77.6878L477.429 77.7659V74.5374C477.429 70.6242 476.972 66.8185 476.058 63.1068L475.869 62.3655C475.32 60.2844 474.109 58.7118 472.251 57.6732C470.409 56.6444 467.962 56.1546 464.949 56.1546C463.045 56.1546 461.271 56.2632 459.65 56.4944L458.964 56.6019C457.121 56.9107 455.314 57.5457 453.547 58.5208L453.355 58.6273L453.303 58.8401L450.658 69.7337L434.937 67.8939L438.016 47.9808C443.864 45.3917 448.789 43.5901 452.824 42.5677L453.63 42.3714C457.844 41.3803 462.901 40.8724 468.808 40.8724ZM477.397 87.7444L476.962 87.6868C476.105 87.5729 475.236 87.4541 474.359 87.3353L471.702 86.9837C469.899 86.7528 468.125 86.6273 466.38 86.6273C462.88 86.6273 459.733 87.2896 456.98 88.6253L456.434 88.9007C453.396 90.4961 451.955 93.6341 451.955 98.0999C451.955 100.62 452.54 102.79 453.748 104.598L453.998 104.954C455.43 106.907 457.819 107.814 461.042 107.814C464.734 107.814 468.173 106.403 471.347 103.615L471.654 103.34C474.965 100.322 476.859 95.609 477.395 89.2796L477.397 89.2591V87.7444Z" stroke="#00205A" stroke-opacity="0.61"/>
<path d="M594.284 80.0415C594.284 91.8402 591.454 102.056 585.777 110.672C580.117 119.289 571.771 123.597 560.772 123.597C549.661 123.597 541.829 118.99 537.295 109.793C537.07 111.798 536.828 113.802 536.571 115.807C536.298 117.811 536.008 119.816 535.687 121.821H514.798C515.554 117.688 516.197 113.556 516.744 109.424C517.275 105.292 517.548 101.23 517.548 97.2033V17.3552H507.835V0H538.436V57.2001C540.382 52.5932 543.325 48.6368 547.265 45.3311C551.204 42.0253 556.463 40.3724 563.056 40.3724C572.221 40.3724 579.731 43.854 585.552 50.8172C591.357 57.7804 594.284 67.5218 594.284 80.0415ZM572.575 81.9757C572.575 74.3092 571.064 68.4713 568.041 64.4446C565.017 60.4355 561.029 58.431 556.061 58.431C550.449 58.431 546.107 60.6817 543.036 65.1656C539.964 69.6495 538.42 74.8367 538.42 80.7448V82.6966C538.42 89.1851 539.9 94.6536 542.875 99.0672C545.833 103.498 550.079 105.714 555.578 105.714C560.322 105.714 564.342 103.797 567.639 99.9639C570.935 96.1131 572.575 90.117 572.575 81.9757Z" fill="#004E78"/>
<path d="M537.936 0.5V57.2002L538.897 57.3945C540.691 53.146 543.347 49.4594 546.87 46.332L547.586 45.7139C551.413 42.5031 556.546 40.8721 563.055 40.8721C571.793 40.8721 578.982 44.0794 584.627 50.5059L585.168 51.1377C590.875 57.9824 593.784 67.5954 593.784 80.041C593.784 91.3907 591.147 101.241 585.877 109.594L585.36 110.397H585.359C579.798 118.862 571.616 123.097 560.772 123.097C555.286 123.097 550.642 121.96 546.821 119.713C543.002 117.467 539.974 114.094 537.744 109.572L536.989 108.041L536.798 109.737C536.574 111.738 536.332 113.739 536.076 115.739C535.822 117.601 535.553 119.461 535.259 121.32H515.396C516.014 117.894 516.556 114.468 517.03 111.042L517.24 109.489V109.487C517.773 105.336 518.048 101.252 518.048 97.2031V16.8555H508.335V0.5H537.936ZM556.061 57.9307C550.47 57.9307 546.074 60.1152 542.924 64.4561L542.623 64.8828C539.49 69.4566 537.92 74.7446 537.92 80.7451V82.6963C537.92 89.2601 539.418 94.831 542.458 99.3438V99.3447C545.514 103.921 549.919 106.214 555.579 106.214C560.325 106.214 564.373 104.348 567.698 100.653L568.018 100.29V100.289C571.427 96.3065 573.076 90.1677 573.076 81.9756C573.076 74.4957 571.648 68.6671 568.728 64.5391L568.44 64.1445V64.1436L568.145 63.7617C565.065 59.8827 561.029 57.9308 556.061 57.9307Z" stroke="#00205A" stroke-opacity="0.61"/>
<path d="M643.168 121.821H602.855V104.641H612.567V59.3278H602.051V41.9726H633.456V104.641H643.168V121.821ZM611.763 27.8001V4.07953H632.652V27.8001H611.763Z" fill="#004E78"/>
<path d="M632.956 42.4731V105.141H642.668V121.321H603.354V105.141H613.067V58.8276H602.551V42.4731H632.956ZM632.151 4.57953V27.3002H612.263V4.57953H632.151Z" stroke="#00205A" stroke-opacity="0.61"/>
<path d="M689.303 121.821H648.989V104.641H658.702V17.3552H648.185V0H679.59V104.624H689.303V121.821Z" fill="#004E78"/>
<path d="M679.091 0.5V105.124H688.802V121.32H649.489V105.142H659.202V16.8555H648.685V0.5H679.091Z" stroke="#00205A" stroke-opacity="0.61"/>
<path d="M737.721 121.821H697.407V104.641H707.12V59.3278H696.603V41.9726H728.008V104.641H737.721V121.821ZM706.3 27.8001V4.07953H727.188V27.8001H706.3Z" fill="#004E78"/>
<path d="M727.509 42.4731V105.141H737.221V121.321H697.907V105.141H707.62V58.8276H697.103V42.4731H727.509ZM726.688 4.57953V27.3002H706.8V4.57953H726.688Z" stroke="#00205A" stroke-opacity="0.61"/>
<path d="M806.352 97.0274C805.275 106.241 802.364 112.958 797.604 117.214C792.861 121.469 786.702 123.579 779.144 123.579C771.056 123.579 764.495 121.363 759.478 116.932C754.461 112.501 751.952 106.171 751.952 97.9066V58.2551H741.596V41.9725H751.952V17.7244H772.841V41.9725H799.068V58.2551H772.841V94.0206C772.841 100.984 775.751 104.465 781.588 104.465C782.891 104.465 784.644 103.85 786.847 102.601C789.05 101.371 790.481 97.8011 791.14 91.8929L806.352 97.0274Z" fill="#004E78"/>
<path d="M772.341 18.2244V42.4725H798.568V57.7547H772.341V94.0203C772.341 97.5592 773.079 100.307 774.642 102.175C776.22 104.06 778.567 104.966 781.589 104.966C783.025 104.966 784.872 104.296 787.093 103.037L787.092 103.036C788.333 102.342 789.3 101.024 790.037 99.1873C790.724 97.4731 791.226 95.2601 791.561 92.5633L805.805 97.3699C804.734 106.025 802.018 112.346 797.701 116.445L797.271 116.841L797.27 116.842C792.636 120.999 786.604 123.079 779.144 123.079C771.401 123.079 765.12 121.027 760.273 116.958L759.809 116.557C754.924 112.243 752.452 106.064 752.452 97.907V57.7547H742.096V42.4725H752.452V18.2244H772.341Z" stroke="#00205A" stroke-opacity="0.61"/>
<path d="M888.604 59.152H881.48L858.003 121.821L851.04 141.831H860.592V159.538H820.278V141.813H831.936L837.757 123.052L812.173 59.152H804.728V41.9726H841.97V59.152H834.686L849.577 95.9725H850.541L861.556 59.152H855.237V41.9726H888.588V59.152H888.604Z" fill="#004E78"/>
<path d="M841.47 42.4726V58.6523H833.944L834.222 59.3398L849.113 96.1601L849.239 96.4726H850.914L851.02 96.1161L862.036 59.2949L862.228 58.6523H855.737V42.4726H888.088V58.6523H881.133L881.011 58.9765L857.535 121.645L858.003 121.82L857.534 121.645L857.53 121.656L850.568 141.667L850.337 142.331H860.091V159.038H820.778V142.313H832.304L832.414 141.962L838.235 123.2L838.288 123.03L838.221 122.866L812.637 58.9658L812.511 58.6523H805.228V42.4726H841.47Z" stroke="#00205A" stroke-opacity="0.61"/>
<path d="M649.424 370.543L638.425 371.598L636.495 359.359H626.557V403.917H636.784V415.944H603.964V403.917H613.613V359.359H603.675L601.745 371.598L590.746 370.543L592.676 347.315H647.51L649.424 370.543Z" fill="#004E78"/>
<path d="M647.05 347.815L648.884 370.092L638.844 371.055L636.989 359.281L636.922 358.859H626.058V404.417H636.284V415.444H604.464V404.417H614.112V358.859H603.247L603.181 359.281L601.324 371.054L591.284 370.092L593.136 347.815H647.05Z" stroke="#00205A" stroke-opacity="0.61"/>
<path d="M711.494 415.944H663.028V403.917H669.781V359.36H663.028V347.332H710.915L712.845 367.395L701.846 368.45L699.916 359.377H682.726V375.537H709.178V387.459H682.726V403.935H700.495L702.425 394.861L713.424 395.916L711.494 415.944Z" fill="#004E78"/>
<path d="M710.461 347.832L712.298 366.945L702.243 367.909L700.406 359.273L700.321 358.877H682.226V376.036H708.678V386.958H682.226V404.435H700.9L700.984 404.038L702.821 395.401L712.877 396.367L711.04 415.445H663.528V404.417H670.282V358.86H663.528V347.832H710.461Z" stroke="#00205A" stroke-opacity="0.61"/>
<path d="M787.763 415.944H762.18V403.917H766.618L755.812 389.991L745.874 403.917H751.084V415.944H724.825V403.917H731.579L749.154 380.794L732.061 359.36H726.272V347.332H751.47V359.36H747.225L757.066 371.703L766.135 359.36H761.601V347.332H786.316V359.36H780.527L763.723 380.583L782.167 403.917H787.763V415.944Z" fill="#004E78"/>
<path d="M750.97 347.832V358.86H746.187L746.833 359.671L756.675 372.015L757.083 372.526L757.469 371.999L766.539 359.656L767.124 358.86H762.101V347.832H785.816V358.86H780.286L780.135 359.049L763.332 380.273L763.085 380.583L763.331 380.894L781.775 404.227L781.925 404.417H787.263V415.445H762.679V404.417H767.638L767.013 403.611L756.207 389.684L755.794 389.154L755.405 389.701L745.467 403.626L744.903 404.417H750.584V415.445H725.325V404.417H731.827L731.976 404.22L749.552 381.097L749.788 380.787L749.545 380.483L732.452 359.048L732.301 358.86H726.772V347.832H750.97Z" stroke="#00205A" stroke-opacity="0.61"/>
<path d="M862.569 415.944H837.564V403.917H842.581L840.266 396.954H818.927L816.322 403.917H822.208V415.944H797.508V403.917H803.201L821.162 359.36H812.479V347.332H834.011L856.604 403.917H862.586V415.944H862.569ZM836.793 386.808L830.232 367.483H829.653L822.61 386.808H836.793Z" fill="#004E78"/>
<path d="M833.672 347.832L856.139 404.103L856.265 404.417H862.085V415.445H838.065V404.417H843.275L843.056 403.759L840.741 396.796L840.626 396.453H818.58L818.459 396.779L815.854 403.742L815.601 404.417H821.707V415.445H798.008V404.417H803.538L803.664 404.104L821.626 359.546L821.903 358.86H812.979V347.832H833.672ZM829.183 367.312L822.14 386.637L821.895 387.308H837.491L837.266 386.647L830.705 367.323L830.59 366.984H829.303L829.183 367.312Z" stroke="#00205A" stroke-opacity="0.61"/>
<path d="M921.086 395.143C921.086 402.247 918.899 407.663 914.525 411.408C910.151 415.136 904.137 417 896.467 417C892.222 417 887.993 416.402 883.78 415.206C879.567 414.011 876.238 412.217 873.794 409.826L875.723 392.822L886.047 393.877L885.95 402.212C888.137 403.478 890.003 404.234 891.546 404.48C893.09 404.726 894.409 404.85 895.502 404.85C898.911 404.85 901.709 404.375 903.896 403.425C906.083 402.476 907.177 400.278 907.177 396.831C907.177 393.033 905.89 390.484 903.317 389.182C900.744 387.881 897.721 386.879 894.248 386.176C891.225 385.613 888.186 384.786 885.13 383.696C882.075 382.606 879.518 380.813 877.46 378.316C875.402 375.819 874.373 372.109 874.373 367.185C874.373 359.519 876.752 354.12 881.512 350.973C886.272 347.843 891.482 346.278 897.158 346.278C901.275 346.278 905.199 346.964 908.929 348.335C912.66 349.707 915.522 351.553 917.516 353.874L918.095 368.768L907.772 369.823L906.903 361.804C905.295 360.609 903.671 359.8 902.031 359.378C900.391 358.956 898.799 358.745 897.255 358.745C894.682 358.745 892.543 359.237 890.839 360.222C889.134 361.207 888.282 362.93 888.282 365.392C888.282 368.275 889.376 370.28 891.563 371.405C893.749 372.531 896.258 373.445 899.088 374.148C901.661 374.711 904.668 375.502 908.109 376.522C911.55 377.542 914.574 379.441 917.179 382.219C919.768 384.997 921.086 389.306 921.086 395.143Z" fill="#004E78"/>
<path d="M897.159 346.778C900.965 346.778 904.6 347.372 908.066 348.559L908.757 348.804C912.36 350.129 915.104 351.892 917.023 354.072L917.577 368.317L908.215 369.274L907.4 361.751L907.377 361.534L907.202 361.403L906.891 361.177C905.444 360.146 903.972 359.41 902.476 358.981L902.155 358.894C900.478 358.463 898.844 358.245 897.255 358.245C894.785 358.245 892.67 358.688 890.931 359.6L890.589 359.789C888.689 360.886 887.782 362.803 887.782 365.391C887.782 366.895 888.067 368.205 888.663 369.297C889.224 370.326 890.048 371.138 891.117 371.734L891.334 371.85C893.282 372.853 895.475 373.688 897.91 374.357L898.968 374.633L898.981 374.636C901.219 375.126 903.792 375.79 906.7 376.63L907.968 377.002C911.318 377.994 914.265 379.842 916.813 382.559V382.56C919.28 385.208 920.586 389.368 920.586 395.143C920.586 402.137 918.438 407.399 914.201 411.028C909.944 414.656 904.059 416.5 896.468 416.5C892.532 416.5 888.609 415.98 884.698 414.94L883.916 414.725C879.861 413.574 876.672 411.87 874.318 409.633L876.164 393.37L885.541 394.328L885.451 402.207L885.447 402.499L885.7 402.645C887.773 403.845 889.596 404.614 891.159 404.92L891.468 404.974C893.027 405.223 894.374 405.349 895.503 405.349C898.737 405.349 901.464 404.928 903.663 404.063L904.095 403.884C906.544 402.821 907.676 400.374 907.677 396.832C907.677 392.915 906.338 390.15 903.543 388.736C901.086 387.493 898.236 386.523 895 385.822L894.347 385.685L894.34 385.684L893.216 385.462C890.965 384.995 888.705 384.381 886.434 383.619L885.299 383.225C882.514 382.232 880.158 380.64 878.226 378.445L877.845 377.998C875.891 375.627 874.873 372.05 874.873 367.185C874.873 359.623 877.214 354.415 881.788 351.39L881.787 351.389C886.465 348.313 891.581 346.778 897.159 346.778Z" stroke="#00205A" stroke-opacity="0.61"/>
</svg>
